PathFileType	4	(X/Y/Z)	C:\Users\dbl\Desktop\LZH\BX\Trimmed_Trimmed_bx_y_10_901.trc
DataRate	CameraRate	NumFrames	NumMarkers	Units	OrigDataRate	OrigDataStartFrame	OrigNumFrames
50.00	50.00	       8	43	mm	50.00	155	       247
Frame#	Time	Top.Head			R.Acromium			L.Acromium			Sternum			R.ASIS			L.ASIS			V.Sacral			R.Thigh.Upper			R.Thigh.Front			R.Thigh.Rear			R.Knee.Lat			R.Knee.Med			R.Shank.Upper			R.Shank.Front			R.Shank.Rear			R.Ankle.Lat			R.Midfoot.Lat			R.Toe.Lat			R.Toe.Tip			R.Toe.Med			R.Ankle.Med			R.Midfoot.Sup			R.Heel			L.Thigh.Upper			L.Thigh.Front			L.Thigh.Rear			L.Knee.Lat			L.Knee.Med			L.Shank.Upper			L.Shank.Front			L.Shank.Rear			L.Ankle.Lat			L.Midfoot.Lat			L.Toe.Lat			L.Toe.Tip			L.Toe.Med			L.Ankle.Med			L.Midfoot.Sup			L.Heel			origin1 front left			origin2 front right			origin 3 back right			origin 4 back leftt			
		X1	Y1	Z1	X2	Y2	Z2	X3	Y3	Z3	X4	Y4	Z4	X5	Y5	Z5	X6	Y6	Z6	X7	Y7	Z7	X8	Y8	Z8	X9	Y9	Z9	X10	Y10	Z10	X11	Y11	Z11	X12	Y12	Z12	X13	Y13	Z13	X14	Y14	Z14	X15	Y15	Z15	X16	Y16	Z16	X17	Y17	Z17	X18	Y18	Z18	X19	Y19	Z19	X20	Y20	Z20	X21	Y21	Z21	X22	Y22	Z22	X23	Y23	Z23	X24	Y24	Z24	X25	Y25	Z25	X26	Y26	Z26	X27	Y27	Z27	X28	Y28	Z28	X29	Y29	Z29	X30	Y30	Z30	X31	Y31	Z31	X32	Y32	Z32	X33	Y33	Z33	X34	Y34	Z34	X35	Y35	Z35	X36	Y36	Z36	X37	Y37	Z37	X38	Y38	Z38	X39	Y39	Z39	X40	Y40	Z40	X41	Y41	Z41	X42	Y42	Z42	X43	Y43	Z43	

155	3.080	-75.71332	245.76065	1174.33447	-272.57074	86.54254	978.84845	-283.51797	413.28290	992.42633	-350.04837	256.97095	1156.99243	-718.38538	168.67720	977.22314	-205.79483	418.63577	1048.00684	-859.47369	244.55556	1103.28625	-775.18823	89.97760	866.70831	-719.46667	148.02699	822.67407	-808.40765	85.48419	719.95520	-774.59650	118.73815	588.70776	-748.71771	226.27698	548.21252	-790.93298	117.66470	520.01654	-710.23218	167.47900	542.85950	-807.90314	119.60419	444.65097	-697.51263	138.99190	208.97099	-617.92047	75.47482	163.93179	-572.81531	48.39904	158.13826	-494.40781	95.52274	161.31320	-533.90533	143.55290	166.38051	-646.18195	211.22745	227.22028	-595.54291	185.17436	175.44026	-721.03821	208.96912	169.83122	-760.02679	436.19940	860.40100	-708.66632	371.28873	815.84882	-788.73450	445.29150	724.88965	-781.00049	419.59631	604.28827	-739.54736	313.02649	560.85736	-771.24036	417.21704	544.87939	-714.07465	373.01071	535.98425	-806.91809	425.81055	481.53418	-687.67261	422.19247	212.76819	-585.05145	468.57889	163.84254	-545.96088	479.34973	159.49243	-490.06802	425.61545	167.30835	-527.51617	388.09979	177.22751	-645.76953	332.75198	211.53137	-597.37329	351.19516	171.64005	-732.41394	346.47427	164.03952	-443.71100	448.48822	146.41302	-450.79410	75.43864	144.48441	-806.29102	82.70813	142.51717	-799.53729	457.72739	145.61552	
156	3.100	-75.89557	246.14719	1170.45068	-271.92233	87.13133	976.01929	-283.48804	413.40042	988.33051	-349.40503	257.05878	1154.50684	-719.40393	168.38559	976.77869	-203.79419	419.00378	1048.12000	-859.09949	244.98418	1103.30994	-775.65851	90.45383	866.47449	-719.92914	148.56786	822.47083	-808.92480	85.83675	719.86310	-774.84619	119.06552	588.61371	-748.96008	226.61557	548.16327	-791.14948	117.85658	519.96515	-710.55255	167.52863	542.77417	-808.12555	119.74226	444.68295	-697.49280	138.98596	209.00488	-617.89459	75.49693	163.93666	-572.82050	48.45668	158.17589	-494.40707	95.55824	161.32968	-533.86969	143.56030	166.37201	-646.24341	211.26619	227.19838	-595.48584	185.16745	175.44400	-721.06604	209.00842	169.80380	-760.65027	436.31424	859.83960	-709.01459	371.74597	815.68250	-789.21277	445.59476	724.72192	-781.35510	419.94452	604.08850	-739.81207	313.32709	560.76379	-771.46979	417.44110	544.70337	-714.21729	373.09784	535.87897	-807.04517	426.04349	481.41861	-687.67609	422.17123	212.75226	-585.01648	468.53555	163.84785	-545.90967	479.31128	159.46848	-490.05264	425.61426	167.30672	-527.48187	387.99228	177.15855	-645.67377	332.90222	211.68655	-597.38922	351.24734	171.52522	-732.39758	346.46771	164.02928	-443.74011	448.58774	146.48067	-450.78098	75.39951	144.50870	-806.31122	82.69511	142.51854	-799.63733	457.60229	145.59363	
157	3.120	-75.96423	246.53314	1166.42358	-271.25696	87.65311	973.47479	-283.39023	413.49023	984.21979	-348.81924	257.14810	1152.09241	-720.38354	168.07230	976.37213	-202.39423	419.32245	1048.20154	-858.66718	245.49026	1103.32617	-776.09534	90.97651	866.28931	-720.41266	149.11700	822.30524	-809.47931	86.18927	719.82867	-775.13904	119.45965	588.50720	-749.19012	226.91089	548.03162	-791.40375	118.14037	519.88312	-710.80682	167.61598	542.76788	-808.36829	119.97974	444.72733	-697.48230	138.97630	209.06570	-617.86652	75.52534	163.96667	-572.82611	48.50297	158.17346	-494.41745	95.58560	161.34224	-533.82117	143.58730	166.33896	-646.30463	211.30692	227.17285	-595.46204	185.16182	175.43994	-721.06500	209.01106	169.75000	-761.27209	436.36600	859.14984	-709.35706	372.17725	815.42511	-789.62524	445.87589	724.59253	-781.62939	420.14102	603.79907	-740.02991	313.55026	560.76221	-771.68292	417.66956	544.53815	-714.33606	373.18994	535.70917	-807.14276	426.27094	481.27209	-687.68555	422.10797	212.73657	-584.92285	468.44272	163.92220	-545.85199	479.25284	159.47168	-490.02835	425.62579	167.29395	-527.43134	387.86261	177.07365	-645.58392	333.04736	211.84338	-597.28864	351.18707	171.45932	-732.36310	346.47168	164.04515	-443.77313	448.67810	146.53342	-450.77209	75.37488	144.53075	-806.34045	82.69642	142.50098	-799.69037	457.55603	145.55640	
158	3.140	-75.98981	246.94087	1162.31152	-270.57919	88.10953	971.21338	-283.26981	413.51840	980.15405	-348.29138	257.23871	1149.75073	-721.32397	167.73839	976.00323	-201.57919	419.59299	1048.25232	-858.22760	246.07018	1103.33435	-776.53870	91.54059	866.12909	-720.89819	149.61687	822.17944	-810.03870	86.59275	719.79584	-775.45349	119.87885	588.43884	-749.42761	227.15213	547.83411	-791.66400	118.55839	519.75031	-711.00037	167.79443	542.82642	-808.56561	120.30010	444.76825	-697.48199	138.96448	209.15297	-617.84497	75.57462	163.99988	-572.82782	48.52548	158.16150	-494.44589	95.62324	161.34897	-533.79504	143.65965	166.26460	-646.34924	211.33803	227.16167	-595.46851	185.17984	175.41615	-721.04547	208.99187	169.70734	-761.77417	436.50702	858.54529	-709.67700	372.52698	815.14563	-789.95337	446.12482	724.42493	-781.82593	420.22260	603.51514	-740.25806	313.67767	560.77789	-771.88641	417.85727	544.37488	-714.42676	373.28351	535.52631	-807.24744	426.47656	481.08408	-687.65662	421.99158	212.69725	-584.79669	468.29022	164.05946	-545.79315	479.18289	159.48581	-489.99860	425.64435	167.26395	-527.37885	387.73004	176.97722	-645.50037	333.18646	212.00130	-597.22467	351.13510	171.35089	-732.31537	346.49933	164.13100	-443.78467	448.72839	146.54875	-450.77222	75.37737	144.54797	-806.37170	82.71359	142.46794	-799.64642	457.59213	145.57104	
159	3.160	-75.99390	247.36668	1158.14868	-269.89362	88.50223	969.23340	-283.18481	413.51691	976.23523	-347.82172	257.33041	1147.48364	-722.22498	167.38489	975.67188	-201.33316	419.81650	1048.27380	-857.80719	246.72968	1103.33826	-776.99316	92.10709	865.99622	-721.37268	150.06737	822.08392	-810.56079	87.06985	719.74506	-775.76099	120.26041	588.45593	-749.68274	227.41937	547.63770	-791.87958	119.07730	519.61237	-711.17133	168.07208	542.93005	-808.70752	120.68369	444.78308	-697.47852	138.94568	209.25310	-617.81421	75.62953	164.02292	-572.81726	48.52908	158.15921	-494.50131	95.67735	161.34692	-533.79852	143.77065	166.15317	-646.38269	211.37125	227.17543	-595.48273	185.22899	175.36293	-721.03259	208.96703	169.70663	-762.10291	436.82578	858.15112	-709.96887	372.80679	814.91046	-790.22168	446.38916	724.18292	-781.97485	420.29025	603.30237	-740.54895	313.74744	560.77032	-772.08411	418.01190	544.24036	-714.53259	373.36569	535.35846	-807.36157	426.66058	480.86804	-687.55511	421.83734	212.62450	-584.66986	468.09305	164.22810	-545.72986	479.11716	159.49290	-489.96884	425.66156	167.22472	-527.32013	387.60837	176.86450	-645.42371	333.31860	212.15976	-597.28876	351.16431	171.16580	-732.23767	346.52310	164.30905	-443.78647	448.72870	146.51958	-450.77823	75.40148	144.56903	-806.40570	82.73658	142.43036	-799.50714	457.67963	145.66234	
160	3.180	-75.95679	247.76411	1153.95972	-269.20486	88.83286	967.53320	-283.22345	413.54388	972.51752	-347.41064	257.42307	1145.29272	-723.08630	167.01288	975.37781	-201.64032	419.99414	1048.26709	-857.43433	247.45110	1103.34863	-777.45245	92.62666	865.92651	-721.82556	150.49374	822.01385	-811.03015	87.61283	719.67328	-776.04504	120.57799	588.54041	-749.94891	227.79788	547.51263	-792.03021	119.61105	519.51666	-711.37347	168.42189	543.04828	-808.85474	121.10643	444.75095	-697.46381	138.92467	209.35068	-617.76410	75.66834	164.03947	-572.79767	48.53018	158.16595	-494.56906	95.72295	161.34998	-533.81464	143.88127	166.03278	-646.41064	211.42014	227.21570	-595.50830	185.28767	175.29524	-721.03339	208.93724	169.73894	-762.30530	437.26749	857.89795	-710.26514	373.06964	814.72687	-790.46790	446.72452	723.91003	-782.12115	420.43454	603.15863	-740.87311	313.80344	560.75330	-772.28284	418.19901	544.17480	-714.74341	373.40887	535.19592	-807.48132	426.84500	480.65601	-687.40692	421.69354	212.54601	-584.55383	467.89481	164.39685	-545.65857	479.06528	159.49879	-489.93521	425.66867	167.19945	-527.25269	387.49994	176.73325	-645.35443	333.44293	212.31824	-597.39282	351.19965	170.99022	-732.11963	346.51218	164.53864	-443.80829	448.68478	146.46109	-450.78436	75.42790	144.58961	-806.42719	82.74249	142.42542	-799.32721	457.77493	145.78497	
161	3.200	-75.87720	248.06400	1149.78101	-268.51752	89.10307	966.11127	-283.47589	413.62695	969.01160	-347.05841	257.51648	1143.17957	-723.90759	166.62341	975.12091	-202.48480	420.12714	1048.23315	-857.16962	248.17528	1103.37830	-777.93451	93.09547	865.92877	-722.25781	150.92758	821.94342	-811.46887	88.21012	719.55878	-776.32446	120.87779	588.60614	-750.22198	228.29681	547.47894	-792.14929	120.09060	519.46783	-711.65033	168.81519	543.12781	-809.06543	121.52147	444.69156	-697.44849	138.92145	209.42422	-617.71967	75.69604	164.04657	-572.77771	48.54397	158.17253	-494.61633	95.71837	161.37749	-533.82764	143.95154	165.94125	-646.44434	211.48808	227.25540	-595.54865	185.32782	175.24045	-721.02325	208.90401	169.76193	-762.45624	437.73309	857.67371	-710.58630	373.37228	814.57092	-790.71497	447.12979	723.67053	-782.28601	420.72604	603.04950	-741.14661	313.87680	560.74847	-772.47601	418.46967	544.17889	-715.10400	373.39633	535.02606	-807.60126	427.06985	480.48474	-687.25824	421.61374	212.50471	-584.45074	467.73825	164.54411	-545.57507	479.01804	159.52298	-489.88803	425.64957	167.20338	-527.18866	387.39557	176.59569	-645.29309	333.55847	212.47618	-597.43390	351.16690	170.88380	-731.97522	346.47812	164.75223	-443.84903	448.61716	146.40237	-450.78580	75.43594	144.59341	-806.39447	82.70753	142.50041	-799.18073	457.84802	145.86456	
162	3.220	-75.77600	248.21353	1145.65784	-267.83621	89.31452	964.96600	-283.96240	413.75455	965.75330	-346.76532	257.61047	1141.14600	-724.68860	166.21753	974.90094	-203.85074	420.21661	1048.17346	-857.05096	248.85191	1103.42456	-778.46399	93.54021	865.95917	-722.68970	151.40814	821.82898	-811.91064	88.81432	719.41217	-776.65137	121.23235	588.57141	-750.50964	228.83163	547.49481	-792.30688	120.50133	519.44232	-711.98651	169.23936	543.12720	-809.34082	121.87048	444.65463	-697.45062	138.94421	209.45447	-617.70905	75.72618	164.02927	-572.75574	48.57686	158.17261	-494.62955	95.65865	161.41599	-533.83771	143.97362	165.89951	-646.49976	211.56799	227.25816	-595.57892	185.35059	175.21051	-720.98083	208.89285	169.73807	-762.60681	438.19241	857.45605	-710.92053	373.75354	814.43146	-790.96924	447.56418	723.48969	-782.45093	421.20523	602.95935	-741.34338	313.98822	560.75415	-772.64301	418.80133	544.20917	-715.55127	373.36871	534.87195	-807.70917	427.36203	480.35934	-687.11401	421.61258	212.52571	-584.36792	467.63242	164.64578	-545.48303	478.96664	159.56488	-489.83200	425.59958	167.22485	-527.13452	387.29147	176.46663	-645.24017	333.66440	212.63306	-597.40503	351.07135	170.81699	-731.83197	346.44620	164.91132	-443.87466	448.56131	146.36858	-450.78268	75.42188	144.56691	-806.29492	82.63196	142.65067	-799.11072	457.88644	145.86658	
